<svg width="901" height="222" viewBox="0 0 901 222" fill="none" xmlns="http://www.w3.org/2000/svg">
<path d="M128 0.148438L256 221.853H0L128 0.148438Z" fill="white"/>
<path d="M440 106.697V115.168H377V106.697H440ZM412.735 143H404.397V79H412.735V143Z" fill="white"/>
<path d="M743.743 222H870.135C874.15 222 878.093 220.975 881.57 219.027C885.025 217.1 887.911 214.297 889.94 210.899C891.941 207.542 892.998 203.707 893 199.799C893 195.902 891.939 192.075 889.929 188.7L805.049 45.9872C803.02 42.5911 800.134 39.789 796.68 37.8624C793.186 35.9091 789.25 34.885 785.248 34.8878C781.233 34.8878 777.291 35.9139 773.814 37.8624C770.361 39.7891 767.475 42.5912 765.447 45.9872L743.743 82.5019L701.309 11.0967C699.279 7.70086 696.391 4.89927 692.937 2.97323C689.441 1.02068 685.504 -0.00294642 681.501 6.37019e-06C677.488 6.37019e-06 673.543 1.02608 670.066 2.97323C666.612 4.89946 663.725 7.70103 661.695 11.0967L556.068 188.7C554.064 192.055 553.004 195.89 553 199.799C553 203.695 554.053 207.525 556.06 210.899C558.089 214.297 560.975 217.1 564.43 219.027C567.925 220.98 571.862 222.004 575.865 222H655.203C686.639 222 709.82 208.597 725.772 182.448L764.499 117.345L785.241 82.5019L847.496 187.159H764.499L743.743 222ZM653.908 187.124L598.541 187.111L681.539 47.5768L722.951 117.345L695.224 163.975C684.63 180.941 672.596 187.123 653.91 187.123L653.908 187.124Z" fill="white"/>
</svg>
